================ AVRIL LAVIGNE - WHAT THE HELL HD 1080p =======================

Format                           : MPEG-4
Format profile                   : Base Media / Version 2
Codec ID                         : mp42
File size                        : 138 MiB
Duration                         : 3mn 45s
Overall bit rate                 : 5 147 Kbps
Encoded date                     : UTC 2011-02-08 20:54:27
Tagged date                      : UTC 2011-02-08 20:54:27
gsst                             : 0

Video
ID                               : 1
Format                           : AVC
Format/Info                      : Advanced Video Codec
Format profile                   : High@L4.0
Format settings, CABAC           : Yes
Format settings, ReFrames        : 1 frame
Codec ID                         : avc1
Codec ID/Info                    : Advanced Video Coding
Duration                         : 3mn 45s
Bit rate mode                    : Variable
Bit rate                         : 5 014 Kbps
Maximum bit rate                 : 8 624 Kbps
Width                            : 1 920 pixels
Height                           : 1 080 pixels
Display aspect ratio             : 16:9
Frame rate mode                  : Variable
Frame rate                       : 23.976 fps
Minimum frame rate               : 23.810 fps
Maximum frame rate               : 24.390 fps
Color space                      : YUV
Chroma subsampling               : 4:2:0
Bit depth                        : 8 bits
Scan type                        : Progressive
Bits/(Pixel*Frame)               : 0.101
Stream size                      : 135 MiB (97%)
Tagged date                      : UTC 2011-02-08 20:54:32

Audio
ID                               : 2
Format                           : AAC
Format/Info                      : Advanced Audio Codec
Format version                   : Version 4
Format profile                   : LC
Format settings, SBR             : No
Codec ID                         : 40
Duration                         : 3mn 45s
Bit rate mode                    : Variable
Bit rate                         : 128 Kbps
Maximum bit rate                 : 230 Kbps
Channel(s)                       : 2 channels
Channel positions                : Front: L R
Sampling rate                    : 44.1 KHz
Stream size                      : 3.43 MiB (2%)
Title                            : (C) 2007 Google Inc. v08.13.2007.
Encoded date                     : UTC 2011-02-08 20:54:30
Tagged date                      : UTC 2011-02-08 20:54:32

===================== SCREEN SHOTS ==================================

                  http://bayimg.com/PaIPLAadP
                  http://bayimg.com/pAiPnaaDp
                  http://bayimg.com/pAIpoaAdP
                  http://bayimg.com/aaJaAaada

===================================================================================
 ##  #  # # # # ### ### ###     ##  #   ###  #   ## ### ===========================
#   # # ### ### #   # #  #      # # #   #   # # #   # =============================  
#   # # ### ### ##  # #  #      ##  #   ##  ###  #  ##=============================  
#   # # # # # # #   # #  #      #   #   #   # #   # # =============================  
 ##  #  # # # # ### # #  #      #   ### ### # # ##  ###===========================
==================================================================================
